<?xml version="1.0" encoding="UTF-8"?>
<svg width="512" height="512" version="1.1" viewBox="0 0 135.47 135.47" xml:space="preserve" xmlns="http://www.w3.org/2000/svg" xmlns:xlink="http://www.w3.org/1999/xlink"><defs><style type="text/css">
   .ColorScheme-Text { color:#dfdfdf; } .ColorScheme-Highlight { color:#4285f4; } .ColorScheme-NeutralText { color:#ff9800; } .ColorScheme-PositiveText { color:#4caf50; } .ColorScheme-NegativeText { color:#f44336; }
  </style><style type="text/css">
   .ColorScheme-Text { color:#dfdfdf; } .ColorScheme-Highlight { color:#4285f4; } .ColorScheme-NeutralText { color:#ff9800; } .ColorScheme-PositiveText { color:#4caf50; } .ColorScheme-NegativeText { color:#f44336; }
  </style><linearGradient id="c" x1="668.9" x2="863.73" y1="327.21" y2="492.55" gradientUnits="userSpaceOnUse"><stop stop-color="#e91e63" offset="0"/><stop stop-color="#ffa700" offset="1"/></linearGradient><linearGradient id="d" x1="723.09" x2="807.94" y1="368.57" y2="420.72" gradientUnits="userSpaceOnUse"><stop stop-color="#e91e63" offset="0"/><stop stop-color="#ffa700" offset="1"/></linearGradient></defs><g transform="matrix(1.5757 0 0 1.5757 -1139.7 -531.28)" fill="none" stroke="url(#c)" stroke-width="0"><path d="m766.32 337.18c-15.803 0-24.743 4.9027-29.344 10.393-4.601 5.4899-4.6934 11.541-4.6934 11.541v60a4.0367 4.0367 0 0 0 4.0371 4.0371 4.0367 4.0367 0 0 0 4.0371-4.0371v-35.641c1.1172-0.97079 3.1259-2.5584 6.3594-3.6641 4.4371-1.5173 9.6151-1.9064 16.182 4.6602 8.4694 8.4694 18.248 8.8086 25.012 6.6094 1.6058-0.5221 3.0569-1.1772 4.373-1.8555v5.4668c-1.1946 0.98567-3.3318 2.5922-6.7422 3.7148-4.6869 1.5428-10.111 1.895-16.65-4.6445a4.0367 4.0367 0 0 0-5.709 0 4.0367 4.0367 0 0 0 0 5.709c8.4604 8.4604 18.178 8.8107 24.883 6.6035 1.5507-0.51045 2.9424-1.1514 4.2188-1.8125v5.4297c-1.1946 0.98567-3.3318 2.5922-6.7422 3.7148-4.6869 1.5428-10.111 1.895-16.65-4.6445a4.0367 4.0367 0 0 0-5.709 0 4.0367 4.0367 0 0 0 0 5.709c8.4604 8.4604 18.178 8.8107 24.883 6.6035 6.7051-2.2072 11.082-6.5781 11.082-6.5781a4.0367 4.0367 0 0 0 0.0137-0.0195 4.0367 4.0367 0 0 0 0.0293-0.043 4.0367 4.0367 0 0 0 1.1621-2.8066 4.0367 4.0367 0 0 0 6e-3 -0.0117v-52.5s-0.0924-6.0511-4.6934-11.541c-4.601-5.4899-13.541-10.393-29.344-10.393zm0 8.0723c14.197 0 20.257 4.0468 23.156 7.5059 2.899 3.4591 2.8066 6.3555 2.8066 6.3555v5.5762c-1.1946 0.98567-3.3318 2.5922-6.7422 3.7148-4.6869 1.5428-10.111 1.895-16.65-4.6445a4.0367 4.0367 0 0 0-5.709 0 4.0367 4.0367 0 0 0 0 5.709c8.4604 8.4604 18.178 8.8107 24.883 6.6035 1.5507-0.51045 2.9424-1.1514 4.2188-1.8125v5.4102c-1.2206 0.99049-3.4007 2.6027-6.8691 3.7305-4.7695 1.5508-10.276 1.8899-16.807-4.6406-8.4335-8.4335-17.973-8.8226-24.502-6.5898-1.3825 0.47273-2.5947 1.0721-3.748 1.6777v-14.734s-0.0924-2.8964 2.8066-6.3555c2.899-3.4591 8.959-7.5059 23.156-7.5059z" color="#000000" fill="url(#d)" stroke-width="0"/></g></svg>
